<svg width="113" height="30" viewBox="0 0 113 30" fill="none" xmlns="http://www.w3.org/2000/svg">
<path d="M74.6316 21.8423C72.7405 21.8423 71.3008 21.3238 70.3125 20.2867C69.3242 19.2374 68.8301 17.6208 68.8301 15.4368C68.8301 13.3139 69.312 11.7156 70.2759 10.6419C71.2398 9.556 72.6917 9.01306 74.6316 9.01306C76.5472 9.01306 77.9991 9.53769 78.9873 10.587C79.9756 11.6363 80.4698 13.2529 80.4698 15.4368C80.4698 17.5598 79.9878 19.1581 79.0239 20.2318C78.0601 21.3055 76.596 21.8423 74.6316 21.8423ZM74.6316 20.0488C75.3637 20.0244 75.9676 19.8658 76.4435 19.573C76.9315 19.2801 77.2975 18.8043 77.5415 18.1454C77.7856 17.4744 77.9076 16.5654 77.9076 15.4185C77.9076 14.3327 77.7856 13.4725 77.5415 12.838C77.2975 12.1914 76.9315 11.7278 76.4435 11.4471C75.9676 11.1543 75.3637 11.0079 74.6316 11.0079C73.924 11.0079 73.3261 11.1543 72.8381 11.4471C72.3622 11.7278 72.0023 12.1914 71.7583 12.838C71.5143 13.4847 71.3923 14.351 71.3923 15.4368C71.3923 16.5837 71.5143 17.4927 71.7583 18.1637C72.0023 18.8348 72.3622 19.3167 72.8381 19.6096C73.3261 19.9024 73.924 20.0488 74.6316 20.0488ZM79.2802 21.7691C79.4876 21.7691 79.6706 21.7447 79.8292 21.6959C79.9878 21.6593 80.1952 21.5617 80.4515 21.4031V23.0319C80.2196 23.1661 79.9695 23.2576 79.7011 23.3064C79.4327 23.3552 79.1521 23.3796 78.8592 23.3796C78.542 23.3796 78.2309 23.3369 77.9259 23.2515C77.633 23.1661 77.3524 23.0258 77.084 22.8306C76.8156 22.6476 76.5777 22.3975 76.3702 22.0802C76.1628 21.7752 75.9981 21.3909 75.8761 20.9273C75.7541 20.488 75.6016 20.0915 75.4186 19.7377C75.2356 19.3838 75.022 19.1032 74.778 18.8958C74.534 18.6884 74.2351 18.5847 73.8813 18.5847C73.4786 18.5847 73.1126 18.6762 72.7832 18.8592C72.466 19.0422 72.1792 19.2984 71.923 19.6279V17.9075C72.1304 17.6391 72.4416 17.389 72.8564 17.1572C73.2712 16.9132 73.7592 16.7911 74.3205 16.7911C74.8329 16.7911 75.3027 16.907 75.7297 17.1389C76.1689 17.3707 76.5533 17.7184 76.8827 18.182C77.2243 18.6457 77.4927 19.2374 77.6879 19.9573C77.8832 20.5307 78.1089 20.9761 78.3651 21.2933C78.6213 21.6105 78.9263 21.7691 79.2802 21.7691Z" fill="white"/>
<path d="M86.4625 21.8057C85.6084 21.8057 84.8641 21.6715 84.2297 21.4031C83.6074 21.1225 83.1194 20.7076 82.7656 20.1586C82.4239 19.6096 82.2531 18.908 82.2531 18.0539V12.3073H84.5774V17.816C84.5774 18.4993 84.7299 19.0056 85.0349 19.335C85.34 19.6645 85.8158 19.8292 86.4625 19.8292C87.1335 19.8292 87.6154 19.6645 87.9083 19.335C88.2133 19.0056 88.3658 18.4993 88.3658 17.816V12.3073H90.562V18.0539C90.562 19.3228 90.1959 20.2684 89.4639 20.8907C88.744 21.5007 87.7436 21.8057 86.4625 21.8057Z" fill="white"/>
<path d="M96.8165 21.8057C96.304 21.8057 95.8038 21.7752 95.3157 21.7142C94.8399 21.6532 94.4068 21.5434 94.0163 21.3848C93.6381 21.214 93.3331 20.9822 93.1013 20.6893C92.8695 20.3965 92.7536 20.0183 92.7536 19.5546V8.75684H95.0412V13.7531L94.5288 13.0211C94.7606 12.8014 95.0473 12.6245 95.3889 12.4903C95.7306 12.3561 96.0783 12.2585 96.4321 12.1975C96.7982 12.1243 97.1032 12.0877 97.3472 12.0877C98.7259 12.0877 99.763 12.5025 100.458 13.3322C101.166 14.1496 101.52 15.3209 101.52 16.846C101.52 17.8221 101.392 18.6335 101.136 19.2801C100.892 19.9146 100.55 20.4148 100.111 20.7808C99.6715 21.1469 99.1712 21.4092 98.61 21.5678C98.0488 21.7264 97.4509 21.8057 96.8165 21.8057ZM96.7433 19.8475C97.3777 19.8475 97.8718 19.7194 98.2257 19.4631C98.5795 19.2069 98.8296 18.8653 98.976 18.4383C99.1224 18.0112 99.1956 17.5232 99.1956 16.9742C99.1956 16.2787 99.1041 15.7114 98.9211 15.2721C98.7381 14.8329 98.4758 14.5096 98.1342 14.3022C97.7925 14.0825 97.3716 13.9727 96.8714 13.9727C96.5907 13.9727 96.2796 14.0093 95.938 14.0825C95.6086 14.1557 95.3096 14.2717 95.0412 14.4303V18.969C95.0412 19.2008 95.1205 19.3838 95.2791 19.518C95.45 19.6401 95.6635 19.7255 95.9197 19.7743C96.1881 19.8231 96.4626 19.8475 96.7433 19.8475Z" fill="white"/>
<path d="M103.273 21.5312V12.3988H105.597L105.616 21.5312H103.273ZM103.218 10.9347V9.03136H105.652V10.9347H103.218Z" fill="white"/>
<path d="M111.389 21.824C110.437 21.824 109.711 21.5922 109.211 21.1286C108.711 20.6527 108.46 19.9695 108.46 19.0788V14.1374H107.033V12.3073H108.46V9.76341H110.858V12.3073H112.999V14.1374H110.858V18.7128C110.858 19.091 110.931 19.3716 111.078 19.5546C111.224 19.7377 111.48 19.8292 111.846 19.8292C112.041 19.8292 112.243 19.7987 112.45 19.7377C112.67 19.6645 112.853 19.5791 112.999 19.4814V21.4946C112.755 21.6166 112.487 21.702 112.194 21.7508C111.913 21.7996 111.645 21.824 111.389 21.824Z" fill="white"/>
<path d="M32.8281 21.5312V9.32421H37.678C38.6175 9.32421 39.4044 9.45232 40.0389 9.70854C40.6733 9.95256 41.1553 10.3247 41.4847 10.8249C41.8141 11.313 41.9788 11.9291 41.9788 12.6734C41.9788 13.2102 41.8568 13.6494 41.6128 13.9911C41.381 14.3327 41.0942 14.6072 40.7526 14.8146C40.4232 15.0098 40.1121 15.1807 39.8193 15.3271L39.5447 14.8146C40.106 14.8634 40.6184 15.0159 41.082 15.2722C41.5579 15.5162 41.9361 15.8578 42.2167 16.297C42.4974 16.7363 42.6377 17.2731 42.6377 17.9076C42.6377 18.7494 42.4363 19.4388 42.0337 19.9756C41.6433 20.5125 41.1064 20.909 40.4232 21.1652C39.7521 21.4092 38.9896 21.5312 38.1355 21.5312H32.8281ZM35.3171 19.5547H38.0074C38.3734 19.5547 38.7151 19.5059 39.0323 19.4083C39.3495 19.3107 39.6057 19.1338 39.801 18.8775C39.9962 18.6213 40.0938 18.2675 40.0938 17.8161C40.0938 17.4622 40.0328 17.1816 39.9108 16.9742C39.7887 16.7546 39.624 16.5899 39.4166 16.4801C39.2092 16.358 38.9774 16.2787 38.7212 16.2421C38.4772 16.1933 38.2209 16.1689 37.9525 16.1689H35.3171V19.5547ZM35.3171 14.2656H37.8793C38.1355 14.2656 38.3856 14.229 38.6297 14.1558C38.8737 14.0704 39.0689 13.9301 39.2153 13.7348C39.3739 13.5274 39.4532 13.2407 39.4532 12.8747C39.4532 12.2768 39.2885 11.8681 38.9591 11.6485C38.6297 11.4289 38.2087 11.3191 37.6963 11.3191H35.3171V14.2656Z" fill="#0060FA"/>
<path d="M46.7226 21.5312H44.4166V8.83008H46.7226V21.5312Z" fill="#0060FA"/>
<path d="M53.1212 21.8058C52.2671 21.8058 51.5229 21.6715 50.8884 21.4031C50.2662 21.1225 49.7782 20.7077 49.4243 20.1586C49.0827 19.6096 48.9119 18.908 48.9119 18.054V12.3073H51.2362V17.8161C51.2362 18.4993 51.3887 19.0056 51.6937 19.3351C51.9987 19.6645 52.4746 19.8292 53.1212 19.8292C53.7923 19.8292 54.2742 19.6645 54.567 19.3351C54.872 19.0056 55.0246 18.4993 55.0246 17.8161V12.3073H57.2207V18.054C57.2207 19.3229 56.8547 20.2684 56.1226 20.8907C55.4028 21.5007 54.4023 21.8058 53.1212 21.8058Z" fill="#0060FA"/>
<path d="M63.4752 21.8058C62.5601 21.8058 61.761 21.6227 61.0777 21.2567C60.3945 20.8785 59.8637 20.3294 59.4855 19.6096C59.1073 18.8897 58.9182 18.0235 58.9182 17.0108C58.9182 15.4003 59.3025 14.1741 60.0712 13.3322C60.852 12.4782 61.944 12.0511 63.3471 12.0511C64.3598 12.0511 65.1711 12.2707 65.7812 12.71C66.4034 13.1492 66.8549 13.7776 67.1355 14.595C67.4283 15.4003 67.5686 16.3641 67.5564 17.4866H60.4189L60.2359 15.9127H65.708L65.2687 16.5716C65.2443 15.6077 65.0735 14.9183 64.7563 14.5035C64.4513 14.0765 63.9571 13.863 63.2739 13.863C62.8591 13.863 62.493 13.9606 62.1758 14.1558C61.8708 14.3388 61.6329 14.6499 61.4621 15.0891C61.3034 15.5284 61.2241 16.1323 61.2241 16.901C61.2241 17.8527 61.4499 18.5847 61.9013 19.0972C62.3527 19.5974 63.0421 19.8475 63.9694 19.8475C64.3476 19.8475 64.7075 19.8109 65.0491 19.7377C65.403 19.6523 65.7263 19.5547 66.0191 19.4449C66.3241 19.3351 66.5803 19.2314 66.7878 19.1338V21.1835C66.3607 21.3665 65.8727 21.5129 65.3237 21.6227C64.7868 21.7448 64.1707 21.8058 63.4752 21.8058Z" fill="#0060FA"/>
<path d="M25.1905 11.7936C25.1896 10.7267 24.7654 9.70371 24.0109 8.94928L20.4611 5.39941L16.8435 9.01694L22.2743 14.4477C22.5692 14.7426 22.5692 15.2207 22.2743 15.5156L14.143 23.6469L10.7021 27.1046H16.269C17.3371 27.1046 18.3615 26.6803 19.1168 25.925L24.0165 21.0253C24.7726 20.2692 25.197 19.2434 25.1961 18.174L25.1905 11.7936Z" fill="url(#paint0_linear_2662_30045)"/>
<path d="M17.116 14.4476L14.7753 12.1069C14.4804 11.812 14.0023 11.812 13.7074 12.1069L11.3667 14.4476C11.0718 14.7425 11.0718 15.2206 11.3667 15.5155L13.7074 17.8562C14.0023 18.1511 14.4804 18.1511 14.7753 17.8562L17.116 15.5155C17.4109 15.2206 17.4109 14.7425 17.116 14.4476Z" fill="#0060FA"/>
<path d="M17.9379 2.875H12.371C11.3029 2.875 10.2785 3.29931 9.52324 4.0546L4.64347 8.93437C3.88056 9.69728 3.45565 10.7344 3.46399 11.8133L3.51393 18.2779C3.5221 19.3352 3.94574 20.3469 4.69341 21.0946L8.09486 24.496L11.7208 20.8701L6.36577 15.5151C6.07087 15.2202 6.07087 14.742 6.36577 14.4471L17.9379 2.875Z" fill="url(#paint1_linear_2662_30045)"/>
<defs>
<linearGradient id="paint0_linear_2662_30045" x1="12.2707" y1="27.1249" x2="20.6653" y2="5.49809" gradientUnits="userSpaceOnUse">
<stop stop-color="#0060FA" stop-opacity="0"/>
<stop offset="0.616325" stop-color="#0060FA"/>
</linearGradient>
<linearGradient id="paint1_linear_2662_30045" x1="15.0166" y1="2.875" x2="5.20754" y2="21.8159" gradientUnits="userSpaceOnUse">
<stop stop-color="#0060FA" stop-opacity="0"/>
<stop offset="0.616325" stop-color="#0060FA"/>
</linearGradient>
</defs>
</svg>
